<svg width="28" height="28" viewBox="0 0 28 28" fill="none" xmlns="http://www.w3.org/2000/svg">
<path d="M5.09668 11.1846C5.09668 14.9375 8.25195 18.6465 13.1562 21.8105C13.4287 21.9863 13.7627 22.1621 13.9912 22.1621C14.2197 22.1621 14.5537 21.9863 14.8262 21.8105C19.7393 18.6465 22.8857 14.9375 22.8857 11.1846C22.8857 7.94141 20.6445 5.69141 17.7705 5.69141C16.0918 5.69141 14.7822 6.45605 13.9912 7.61621C13.2178 6.46484 11.8994 5.69141 10.2207 5.69141C7.33789 5.69141 5.09668 7.94141 5.09668 11.1846ZM6.90723 11.1758C6.90723 8.96094 8.36621 7.45801 10.3262 7.45801C11.9082 7.45801 12.7959 8.41602 13.3496 9.25098C13.5957 9.61133 13.7627 9.72559 13.9912 9.72559C14.2285 9.72559 14.3779 9.60254 14.6328 9.25098C15.2305 8.43359 16.083 7.45801 17.6562 7.45801C19.625 7.45801 21.084 8.96094 21.084 11.1758C21.084 14.2695 17.8672 17.6973 14.1582 20.1582C14.0791 20.2109 14.0264 20.2461 13.9912 20.2461C13.9561 20.2461 13.9033 20.2109 13.833 20.1582C10.124 17.6973 6.90723 14.2695 6.90723 11.1758Z" fill="#1C1C1E"/>
<path d="M7.32935 14.8371H9.55926C9.81539 14.8371 9.97109 14.7216 10.0263 14.4956L10.7144 11.3265L11.98 18.9604C12.0503 19.3873 12.7032 19.3823 12.7886 18.9654L14.004 13.23L14.2451 14.4504C14.3003 14.7115 14.451 14.8371 14.7172 14.8371H16.6759C16.9069 14.8371 17.0927 14.6563 17.0927 14.4253C17.0927 14.1892 16.9119 14.0084 16.6759 14.0084H14.9331L14.3706 11.4973C14.2802 11.0904 13.6675 11.0904 13.5721 11.5123L12.3818 16.851L11.1112 9.13676C11.0459 8.71991 10.4382 8.70986 10.3478 9.13174L9.29307 14.0084H7.32935C7.0933 14.0084 6.90747 14.1942 6.90747 14.4253C6.90747 14.6563 7.0933 14.8371 7.32935 14.8371Z" fill="#1C1C1E"/>
<circle cx="17" cy="14" r="1" fill="#1C1C1E"/>
</svg>
