<svg width="40" height="40" viewBox="0 0 40 40" fill="none" xmlns="http://www.w3.org/2000/svg">
<path d="M7.28101 15.978C7.28101 21.3393 11.7885 26.6379 18.7947 31.158C19.1839 31.4091 19.661 31.6602 19.9875 31.6602C20.3139 31.6602 20.7911 31.4091 21.1803 31.158C28.199 26.6379 32.694 21.3393 32.694 15.978C32.694 11.3449 29.4922 8.13062 25.3865 8.13062C22.9883 8.13062 21.1175 9.22297 19.9875 10.8803C18.8826 9.23553 16.9992 8.13062 14.601 8.13062C10.4827 8.13062 7.28101 11.3449 7.28101 15.978ZM9.8675 15.9654C9.8675 12.8014 11.9518 10.6543 14.7517 10.6543C17.0118 10.6543 18.2799 12.0229 19.0709 13.2157C19.4225 13.7305 19.661 13.8937 19.9875 13.8937C20.3265 13.8937 20.5399 13.7179 20.9041 13.2157C21.7578 12.048 22.9758 10.6543 25.2232 10.6543C28.0357 10.6543 30.12 12.8014 30.12 15.9654C30.12 20.3851 25.5246 25.2818 20.226 28.7975C20.113 28.8728 20.0377 28.923 19.9875 28.923C19.9373 28.923 19.8619 28.8728 19.7615 28.7975C14.4629 25.2818 9.8675 20.3851 9.8675 15.9654Z" fill="#1C1C1E"/>
<path d="M10.4704 21.1958H13.6559C14.0219 21.1958 14.2443 21.0307 14.3232 20.7079L15.3061 16.1806L17.1142 27.0862C17.2146 27.6961 18.1473 27.6889 18.2693 27.0934L20.0056 18.8998L20.35 20.6433C20.4289 21.0164 20.6441 21.1958 21.0244 21.1958H23.8226C24.1526 21.1958 24.4181 20.9375 24.4181 20.6074C24.4181 20.2702 24.1598 20.0119 23.8226 20.0119H21.3329L20.5293 16.4246C20.4002 15.8434 19.5249 15.8434 19.3886 16.4461L17.6881 24.0728L15.8729 13.0524C15.7797 12.4569 14.9115 12.4426 14.7824 13.0453L13.2757 20.0119H10.4704C10.1331 20.0119 9.86768 20.2774 9.86768 20.6074C9.86768 20.9375 10.1331 21.1958 10.4704 21.1958Z" fill="#1C1C1E"/>
<circle cx="24.2857" cy="20" r="1.42857" fill="#1C1C1E"/>
</svg>
