<svg width="35" height="35" viewBox="0 0 35 35" fill="none" xmlns="http://www.w3.org/2000/svg">
<path d="M6.37085 13.9807C6.37085 18.6719 10.3149 23.3081 16.4453 27.2632C16.7859 27.4829 17.2034 27.7026 17.489 27.7026C17.7747 27.7026 18.1921 27.4829 18.5327 27.2632C24.6741 23.3081 28.6072 18.6719 28.6072 13.9807C28.6072 9.92676 25.8057 7.11426 22.2131 7.11426C20.1147 7.11426 18.4778 8.07007 17.489 9.52026C16.5222 8.08105 14.8743 7.11426 12.7759 7.11426C9.17236 7.11426 6.37085 9.92676 6.37085 13.9807ZM8.63403 13.9697C8.63403 11.2012 10.4578 9.32251 12.9077 9.32251C14.8853 9.32251 15.9949 10.52 16.687 11.5637C16.9946 12.0142 17.2034 12.157 17.489 12.157C17.7856 12.157 17.9724 12.0032 18.291 11.5637C19.0381 10.542 20.1038 9.32251 22.0703 9.32251C24.5312 9.32251 26.355 11.2012 26.355 13.9697C26.355 17.8369 22.334 22.1216 17.6978 25.1978C17.5989 25.2637 17.533 25.3076 17.489 25.3076C17.4451 25.3076 17.3792 25.2637 17.2913 25.1978C12.655 22.1216 8.63403 17.8369 8.63403 13.9697Z" fill="#1C1C1E"/>
<path d="M9.16162 18.5463H11.949C12.2692 18.5463 12.4638 18.4019 12.5329 18.1194L13.3929 14.158L14.975 23.7004C15.0628 24.2341 15.879 24.2278 15.9857 23.7067L17.505 16.5374L17.8063 18.0629C17.8753 18.3893 18.0637 18.5463 18.3964 18.5463H20.8448C21.1336 18.5463 21.3659 18.3203 21.3659 18.0315C21.3659 17.7364 21.1399 17.5104 20.8448 17.5104H18.6664L17.9632 14.3715C17.8502 13.863 17.0843 13.863 16.9651 14.3903L15.4772 21.0637L13.8889 11.4209C13.8073 10.8998 13.0476 10.8872 12.9346 11.4146L11.6163 17.5104H9.16162C8.86656 17.5104 8.63428 17.7427 8.63428 18.0315C8.63428 18.3203 8.86656 18.5463 9.16162 18.5463Z" fill="#1C1C1E"/>
<circle cx="21.25" cy="17.5" r="1.25" fill="#1C1C1E"/>
</svg>
